<svg xmlns="http://www.w3.org/2000/svg" width="1236.2" height="104" viewBox="0 0 1236.24 104"><g fill-rule="evenodd" clip-rule="evenodd" fill="#525252"><path d="M0 104s5.7-3.3 7.2-3.7 3-3 4.8-3.4c.3-.2.5-.6.7-1v-.7-37.8V56h12v6c0 1 .2 1.3 1.3 1.3h7.6V40h9v23h5V51.2h12.8v21h3.4v-6h12v31h13V75.8H114v19.7c0 .5-.2 1.2.8 1.2s1-.5 1-1.3V79.3v-4.7h-5.5c-.5-1-.3-2.5-2-2.3-1 0-1.3 1-1.3 2-.3 0-.6 0-.6-.2-.2-1-.5-1.7-1.6-1.8-1.2 0-1.4 1-1.8 2V30h25.5v26.6H118v40h1.7v-39H144v24c-1.7-.3-3.3-.3-5-.5-1.5-.2-3 .6-4.7.2-1.6-.4-3.3 0-5 0v2.5h3.6v2.6H129v2.4h3.7V91h-3.7c0 .3-.2.4-.2.5 0 3-.2 2.5 2.6 2.5h1.3v2.6h1.4V83h40.8v13.5h22.5V89c-2 0-3.7.3-5-1.4-1.4-1.6-1.7-3.2-1-5.2-1.7-.8-2.7-2.2-2.8-4-.2-2.2 1-4 3-4.7 1-.3 1.2-.8 1.2-1.7.2-3.4 3.5-6.6 6.7-6.5 2.7 0 4.6 1.7 5.7 4.2.2.5.7 1 1 1 2 .3 3.5 1.2 4 3 .6 1.8.5 3.5-1 5l-.2.2c1 1 1.6 2.4 1.5 4-.2 2.7-3 5-5.6 4-.7 0-1.3 0-1.8.6l-.3.3c-1.8.4-1.8 1.7-1.7 3.2v5.4h18.6c-2-2.6-2.8-5.4-1.5-8.5 1-2 2.2-4.4 5.2-4.4h2V77c-3 .4-3.3.3-3.3-.8h-1c.3-.5.3-1 .6-1.3 1.4-1.3 3-2.4 4.4-3.6 0 0 0-.3.2-.5.2-1.3 1.2-1.6 2.2-1.6 1 0 1.6.7 2 1.7 0 .3 0 .6.2 1h-.6c-.3-.7-.4-1.3-.7-1.6l-1.3.5 1.5.8v.4h-2l2.5 2.2c-.2.6-.4 1.2-1.5.8-.4 0-1 .4-1.7.7 0-.4.3-.7.5-1.2-.6 0-1 0-1.3.3-.7.6-.8 1.7-.5 3.3 1-.2 2-.2 2.8-.6.5-.4 1-.3 1.3-.2 2 .4 3.4-.8 5-1.6.7-.5 1.4-1 2.2-1 1-.4 2 .5 2.6 1.2 1 1.2 1.7 1 2.3-.4l.8-1c.3 2 1.7 2.8 3 3.7 0-.7-.4-1.5-.7-2.3h.2l1 1.5c.3-.5.5-1 1-1.5l1.2.8c0 .2 0 .3-.2.4l-.5-.3-.5 1.5.3.2.7-1c0 .2 0 .3.2.3-.3.4-.6 1-1 1.2-.7.7-.6 1 0 1.8 1 .6 1.5 1.3 2 2l-1-.7v.2l5.4 5.2h.2l-4.4-4.7 3.5 3 1.3 1c2-2.2 4.6-3.2 7.4-2.7 2.2.3 4 1.5 5 3.3 2.6 3.7 1.7 10-4 12.3l11 1V84.6l-1.8-.7v-.3l4.2 1v.4H275v16c6.6.8 13 .8 19.6.7V88.5h-2l4-4.6c2.2-2.5 4.5-5 6.8-7.3.3-.4 1-.6 1.4-.6h11.5v-2h6.2v2h25.2c.7 0 1 .2 1.6.8 2.5 3.3 5 6.5 7.7 9.7.6.6 1 1.3 1.3 2h-2v10.8l6.6-.5v-3.5-9.6c0-.5 0-1 .4-1.4L375.7 72l.4-.3 5.3 5.2 6.2 6.3c.4.4 1 .6 1.7.6h20.5v8.6c3.5-.6 7-1.2 10.3-2l19.7-4.7c1.2-.3 1.6-.8 1.2-2-.4-.7-.5-1.6-.7-2.5-2.4 1.2-4.7 1.5-7 0-2.4-1.2-3.5-3.3-3.4-6 0-1-.3-1.4-1.2-1.7-2.5-1-4-3-4.3-5.6-.3-3 1-5.3 3.6-6.7.8-.4 1-.6 1-1.5-.4-3 0-6 2-8.8 3-4.2 9-4.7 12.7-1.4 1 .8 1.8 2 2.7 3 .2 0 .6.4 1 .4 3.4-1 7 1.8 7.7 5 .5 1.8.3 3.5-.7 5.2l-.3.6c1.6 1.2 3 2.5 3.3 4.5 1 4.6-2.5 8.4-6.4 8.2-1.4 0-2.2.2-2.8 1.4-.3.6-.8 1.2-1.3 1.5-1.3.6-1.3 1.4-1 2.5.3.6.4 1.2.5 2l10-3c5.6-2 11.2-4.2 17-6.2 1.8-.6 3.7-1.3 5.6-1.6 2.4-.3 4-1.5 5.3-3.4l1.5-2.2c1.5-2.3 2.6-2.6 5.2-2 2.2.5 4.5 1 6.7 1.3 2.3.3 4-1 5.6-2.4 3.5-3.2 6-7.3 8.8-11 3.2-4.2 6-8.3 9.2-12.3 1-1.3 2.5-2.4 4-3.5 1-.7 2-1 3-.2 1.3.7 2.5 1.2 3.5 2 2 1.5 4.5 1.7 7 1.3l8-1.4c2-.2 3.3 1 4.6 2 4 3.3 7 7.6 10 11.6 4 5 7.6 10 11.5 15 1.4 1.7 3.2 3 5 4.6 1.3 1.2 3 1.7 5 1.8 2 .2 3.5 1 4.8 2.4l5.3 6c2.5 2.8 5.2 5.5 9.3 6.3 2.8.7 5.6.4 8.2-.8 1.8-.7 3.4-1.8 5.2-2.7l-.7-.8c-1.5-1-2.8-2.4-3-4.4 0-2 .8-3.3 2.6-3.8 2.3-.7 4.6-1.4 7-2.3.7-.3 1.6-.7 2-1.8.6-1.2 2.8-1 3.6 0 .3.7.7 1.2 1.2 1.8.8 1 .6 1.6-.6 1.8-.7 0-1 .3-1 1 0 1.3-.4 2.4-.6 3.8 2-.6 3.8-1.2 5.6-2 .7 0 .8-.6.3-1.2l-1.6-2c-1-1.3-1.6-2.8-1.3-4.4.3-.5.7-1.4 1.6-2 2.2-1 4.6-.8 6.8-1.5 1-.4 2.3-1 3.4-1.3.2 0 .4-.3.5-.5.5-.8 1.4-1.2 2.2-.8.6.2 1 .8 1.6 1.4.5.3.7.8 1 1.3 0 .5.5 1.2.4 1.4-.3.4-1 .5-1.4.6h-.5l-2 6c1 0 2-.3 3-.4l7.5-1.3c.3 0 .7-.3.7-.5V66c-1.7 0-3.3 0-4.8-.3-3.8-1-5.7-5-4.6-8.8.2-.7.3-1-.5-1.5-3-1.5-4-4.6-3.6-7 .5-3.4 2.7-5.5 6-6 .4-2 .7-4 1.4-5.7 1.2-3 3.4-5 6.5-6 3.6-1 7.8.3 10 3.4.6 1 1.2 1.8 1.6 3 .2 1 .8 1 1.7 1.2 3 .2 5.3 2.5 6 5.3.5 2.5 0 4.5-1.6 6.3 0 .3-.3.5-.3.5l2 4.3c.7 2.7-.3 5-2.3 6.8-2 1.7-4.3 2.2-6.8 1.3-.7-.3-1-.2-1.5.3-.7.7-1.5 1.4-2.5 1.8-1 .5-1 1-1 2v6.6h3.4c.3 0 .7-.7.8-1v-3c0-1.5.7-2.2 2.2-2.2 3.2 0 6.4 0 9.6-.2 1 0 2-.2 3-.4s1.8-.7 1.5-2c.8 1 1 1 1.5.4l2 1-.7.6c.4.5 1 1 1.2 1.5.2.2.3.6.2.7 0 .2-.4.3-.7.3l-.8-.2c-1.8 0-2.6.5-3.7 2.7l-1.2 2.6c1 0 2.3.3 3.4.4v-.2c.2-2.3.2-2.3 2.5-2.3 2.6 0 5 0 7.7-.2 1 0 2 0 2.5-1.2h1.3l1 .6c-.3.5-.3.5 1 1.6-.5 0-.8.2-1 0-1.5-.3-2.4.2-3 1.4-.7.8-1.4 1.5-2 2.4 3 1 5.8 2 8.8 2.8-.4-6 3-8.7 6-9.7 3.8-1.2 7.8.4 9.8 3.7 2 3.5 1.3 7.4-2.7 11.6 4.6 1.6 9 3 13.4 4.7-.7-4.3.6-6.6 3.3-7.8 2.5-1.3 5.4-.6 7.2 1.8 1.5 2 2 4.8-1 8.5l12.3 2.2v-9.3c0-.3-.5-.6-.8-1l6-1.6c3.3-.8 3.4-.7 3.4-4l-.3-16.2c0-.6 0-1-.8-1.2-.2 0-.5-.7-.4-1L760 52c.4-.8 2.2-.7 2.6.2l4.7 9c-1.8 0-1.5 1.3-1.5 2.4v16l6.6-1.8c.2 0 .4-.6.4-1v-8.6c0-.5-.7-1-1.2-1.6 3.4-4 7-8.5 10.6-13l-1-1 5-5.7 5 5.8-1 .7c3.7 4.5 7.3 8.8 11 13l-.2.3c-1.4.2-1.5 1-1.5 2.2 0 7.6 0 15 .2 22.6v1.6l15-2.4c.4-1.7.2-13.2-.4-14l7.5-.5 12.7-.5c1.8 0 3.5 0 5.3-.2.3 0 .7 0 1-.3l13-9c.3 0 .5-.5.7-.8 0 0-.2 0-.2-.2-3.8 2.4-7.6 4.7-11.2 7.3-1.8 1.3-3.8 1.6-6 1.8l-16 1h-7c.8-.6 1.3-1 1.8-1.2l7.8-4.8c2.2-1.5 4.8-2 7.3-2.2l13-2 4.5-1c.7 0 1-.2 1-1-.3-1 .2-1.6 1-1.8 2.6-.7 5-.8 7.6-.6h2.2l8.7.5-.7 7c-.2 0-.4 0-.5-.2-1.5-1-2.7-.6-4 .4-2.6 2-5.3 3.7-8 5.5l-1.5.4h-4.8c-.5 0-1 .5-1.3 1 3.2 0 6.4.2 9.3-1.8 2.2-1.6 4.7-2.8 7-4.2 1-.5 2.2-.6 3 .2l6.5 5c.3.4.5 1 .5 1.5 0 4 0 8-.2 12v1.2l13 .7V86c-1.7.3-3.5.3-5-1.3-1.3-1.6-1.4-3.3-.8-5.2-1.4-.8-2.4-1.8-2.7-3.4-.5-2.3.8-4.7 3-5.4 1-.2 1-.5 1.2-1.3 0-3.4 2.8-6.5 6-6.8 2-.3 4.8.6 6.2 3.7.4 1 .8 1.3 2 1.5 3.4.6 4.7 5 2.4 7.6l-.4.5c1 1.2 1.6 2.4 1.5 4 0 2.7-2.8 4.8-5.4 4.2-.7-.2-1.5-.4-2 .5-2.8 1-1.8 3.2-2 5.2 2.4 0 4.7.2 7 .4-.5-1.4.8-1.4 1-2l.7-1.6 2.5-3.6c1-1.3 2.4-1.8 4-1.8 2 0 3.8 0 5.7.2 0-3 .3-6-.7-9.3l-1.5.7.6-1.4c1.7-3.3 3.5-6.5 5-9.8 1.2-3 3.4-5.2 6-7l9-7c1.8-1.4 2-2.6 1.4-4.8l-.7-2.4s.3 0 .4-.2L933 42l2.5-.8s0 .2.2.2c-.2.4-.4.8-.7 1l-1 1.2c-1 1.8-.6 2.6.6 3.4l16 11.3c.6.4 1.2 1 1.5 2 2.2 4 4 8 6 12l.3.8c-1.8-.3-1.7 1-1.7 2 0 1.2 0 2.4-.3 3.6-.3 1.4 0 2.4 1.4 3-.5.2-1 .2-1.6.3l-.8 12.2 9.6.5c-.7-.8-1.5-1.5-2-2.5-.2-1 0-2-.2-3.2-2.3-1.8-3-4-1.3-6 .4-.6 1-1.2 1.8-1.3 1-.3 1-.6 1-1.3.3-3.2 3-6 6-5.8 2.3 0 3.8 1.5 5 3.6 0 .4.4 1 .7 1 3.6.6 5 3.8 2.6 6.6 0 0 0 .2-.3.4 1.2 1.2 1.8 2.6 1.2 4.4-.7 1.8-2.6 3-4.5 2.5-.6 0-1 0-1.6.5-.4.5-1 .8-1.7 1.3 6.7.4 13.4 0 20-.3v-4c-1.7.4-3.4.6-5 0-3.4-1.3-5.2-4.7-4.3-8 .2-.7 0-1-.6-1.4-2.6-1.2-4-3.8-3.6-6.8.4-2.8 2-4.6 4.6-5.5.8-.3 1-.6 1-1.3 0-3 1-5.7 3-8 4.3-4.7 11.4-3.7 14.7 2l.3.6c.3 1 1 1.5 2.2 1.6 5 0 8 6.4 4.7 10.8l-.7.8c1.8 1.6 2.8 3.5 2.7 6 0 2.8-2.7 5.8-5.5 6-1 .2-2 0-3.2 0-.4 0-1 0-1.2.4-.8.5-1.4 1.4-2.2 1.7-1 .5-1.2 1-1 2V94c22-2 43-6 64.5-10.3l2-14.5-6.4 7.4-7-7.2 14.6-12c1-1 1-2.3 1.2-3.4 0-.3.2-.7 0-1 0-2.6 1.7-4 3.5-5.7-6.5-5.5-13-11-19.4-16.2l7-7 16.3 19.4 3-3.2 2.7 3.4 16.3-19.5 7.2 7.2-19.2 16 .6.7c2 1.3 2.7 3.3 2.7 5.5 0 2.3 1 3.6 2.7 5 4.5 3.5 8.8 7.2 13.2 10.8l-7.2 7.2c-2-2.4-4-5-6.5-7.7l1 8.5c.2 1 1 .7 1.7.6 1.8-.2 3.5-.5 5.3-.5 5 0 10.3 0 15.4.3 5 .2 9.8.8 14.7 1.4 3.6.3 7 .8 10.6 1.2.5 0 1 0 1.4.2V75c-2.2.6-4.2.2-5.7-1.5-1.6-1.7-1.8-3.6-1-5.8-2.6-1.3-3.6-3.5-3-6.3.4-2.2 2-3.5 4.4-4 .3-2.4 1-4.8 2.7-6.7 3.4-3.5 8.6-2.8 11.3 1.5v.2c.6 1 1 2 2.6 2.2 3.8.8 5.2 5.6 2.7 8.6l-.5.6c2 2.5 2.3 5.2.8 7.2-1.3 1.6-3.3 3-6.5 1.8-1 .6-2 1.2-2.8 2-.3 0-.6.6-.6 1v4.7c0 .3.3.7.5.8l5.2.8 2.4-5.7-1-.7.6-1.4h1l2.7-2.6v4.2l2.7-2.6h.4l.3 3c0 .3 0 .8.3 1 .3 0 .8-.2 1-.4l2.4-2V78l2.2-2.3c.7 1 1.2 1.7 1.5 2.4.2.7 0 1.3.2 2 0 0 0 .4.2.6l.5-.4 1.8-2.5h.4c0 1.2.4 2.3.6 3.7.5.3 1 .4 1.4-.6.4-.7 1.2-1.3 1.8-2 0 0 .2 0 .3.2l.4 3 2-2.5h.4l.3 3.2c.2.4.7.7.6 1l-1 1.3-.7 2.2c1 0 2 0 2.3-.3.8-1 .5-1.8-.6-2.2 0-.5.3-1 .4-1.5h1l2.2-2.8h.3l.6 3.8c1-1 1.8-2 2.5-3h.4c0 1 .2 2 .4 3 0 .4.4.7.6.8.2 0 .6 0 .8-.3.7-.7 1.2-1.5 2-2.2h.2l.4 3 2-2.4h.3c.2 1 .2 2 .5 3 0 .6.7 1 1 1.2 1-1 1.6-2 2.3-2.8h.4c0 1 0 2 .2 3l.3.6c.2 0 .4-.2.5-.4l1.8-2.4h.4l.8 3.7c.4 0 1 .3 1.3-.8.3-.7 1-1.3 1.7-2l.4.2.3 3.2 2-2.7h.4l.5 3c0 .3.4.5.3.7 0 .6-.2 1-.5 1.6l-.8 1c10.7 2.7 21.2 8 31.7 10.7M524.8 39.3c-.2 0-.5.2-.6.4-1.6 1.8-3.4 3.5-4.8 5.4l-8.7 12.6c-1 1.5-2.3 3-3.4 4.5 1.8-1.2 3.5-2.6 5.4-3.7 1.2-.7 2.7-1.2 4-1.4 2-.4 4.3.7 5.3 3.5 1 2.3 1.7 4.5 2.7 6.7.7 1.7 1.8 2 3.6 2 1.5-.4 2.5-1.3 2.8-2.8.5-1.6.8-3.2 1-4.8.3-1.3.5-2.6 1.5-3.4 2-1.6 4.2-2.3 6.5-1.6 2.4.7 4.5 2 6.8 3 1.6.8 3.2 1.5 5 2 1 .3 1.6-.6 1.4-1.7l-.7-2.8v-1c-.5-1-.2-1.6.6-2.2 1-.6 2-.2 2.5.6 1.6 2 3 4.2 4.7 6.3l3 3.6c1.3 1.2 3.2.8 3.4-.6.2-1.4 0-2.7-1-4-2.8-3.6-5.6-7.5-8.6-11-2-2.5-4.2-4.6-6.5-7-.4 2-1.8 3-3.4 3.3-2 .5-4 .3-6-.4-2.3-.7-4.6-.7-7-.4-2.3.3-4.6 1-7 .5-1.7-.2-2.6-1-2.6-2.6 0-1 .3-2 .4-3zm249 56.6c3.7-.4 7-.6 10.2-.8 1.5 0 3-.3 4.6-.5 2.8-.3 5.6-.8 8.4-1 1-.2 1.3-.5 1.3-1.6V69v-1h-24c0 9.2-.2 18.4-.4 28zm-475.4 4.8h13c.7 0 .6-.6.6-1v-7.2-2.8h-13.6v11zM765 61.6h-7.4v20c2.4-.6 4.7-1.2 7-2 .6 0 .8-.5.8-1.2v-13c0-1.3-.2-2.6-.3-3.8zM257 99.2c-.2 0-.3-.2-.4-.3-2.5-2-4-4.5-3.4-7.8 0-1 .2-1.8-.7-2.6-1.8-1.6-3.5-3.2-5-5-.7-.5-1.2-.5-1.7 0l-1.4 2c-1 2.8-.8 3.3.6 4.2l-.7 1h1.6c-.8 1-1.2 2.2-2 2.7-1 1-2.3 1.5-3.6 2-.3.3-.7.5-1 .5h-10.5c-.8 0-1.4.2-2 .4 10 1 20 2 30 2.8zm509-3V87h5.4v8c0 .5 0 1 .8 1 .7 0 1-.4 1-1-.2-3-.2-5.8-.2-8.7 0-1-.3-1.2-1.2-1.2-5.7.2-11.5.2-17.2.2h-5.3V95l16.7 1zm167.3-3.3c.6-3.7.2-7.3.3-11h-8.4v1h.8s.2.6 0 .7l-.8.3v8.4c2.6 0 5.2.3 8 .5zm-601-3.2h-5v11h4.3c.6 0 .8-.3.8-1V90zm46.5-3.2V95h6.4v-8.4h-6.4zM373 95v-8.3H367V95h6.3zm-30-5.2h-7.2V97h7V90zM783 60.2h5.4c.3 0 .7-.6.7-1l.3-4.5c0-1.2.4-2.6-.6-3.6l-2.8-2.6c-1 1-2 1.8-2.8 2.8-.2.3-.5.7-.5 1 0 2.6 0 5.3.2 8zM395.5 92.4c.2-.2.7-.5.7-.8v-5h-5v9l4-.6c1 0 1.2-.5 1-1.3 0-.5-.5-1-.7-1.3zM236.8 78.6c-2.5 0-5-1.3-7.4-.4l3 .6c-.6 1-1.2 2-2 3 .7 0 1-.2 1.3 0 1 0 1.8 0 2.5.3.8.6 1.3.4 2-.2 1-1 1.7-2 3.2-2.6.6-.2 1 0 1 .6v1l1.3-2.2.7 1.3c.3 1 .4 1 1.5.3l-6-5.2c-1 2-3.3.8-4 2.7 1 .3 2 .6 2.8 1zm835.7 2.8l5.4-1c2-.4 2-.4 2-2.7 0-1.4-1.3-2.8-2.7-3.3-1.4-.4-3 .2-4 1.4-1.3 1.7-.5 3.6-.8 5.6zm-719 8.4h-8v5h8v-5zm-93 1.2c.3-.6.8-1.3 1.3 0v.3c.7.5 1 2 .5 2.4l-1 1.4c1.2.6 2.2.5 2.6-.5.3-.8 1.3-1.4.6-2.6-.4-1 .5-.8 1-.7 0-.7 0-1.4-.3-2-1.3-2.7-5-4.2-7.8-2-.6.7-1.2 1.3 0 2l.3.4c.3 1 .8 1.6 2 1l.6.3zm675 .6c.2 0 .3 0 .4.2l7.4-9.7h-7.8v9.6zM713.4 78c0-2.7-2-4.8-4.8-4.8-2.5 0-4.8 2.2-4.8 4.8 0 2.7 2 4.6 4.7 4.8 2.4.2 5.2-2.3 5-4.8zm220.2-14.6V57H928c1 1.3 1.6 2.4 2.3 3.5h-.2l-1.7-1v5.2c0 .3.4.7.6.7h4.5L931 62v-.3c1 .5 1.6 1 2.5 1.7zM378 83.7l.2-.4V77c0-1.5-.4-2-2-2H375c-1 0-1.3.5-1.3 1.3V83c0 .2.5.7.7.7h3.7zM936 93l7 .6v-9.3c-2.4 2.8-4.6 5.6-7 8.8zm-534.2-6.3v5h6v-5h-6zm138.2-45v-.4c-3.5.5-6.8.5-9.7-2l-1.5-.8c-1.4-.5-2.7.4-2.5 1.7.3 1.3 1 2.5 2.4 2.7h5.4l6-1.4zM59 77.3v-2.7H49v2.7h10zm-10-7h10v-2.8H49v3zm819.3 12v-1V77c0-.2-.2-.4-.3-.5l-1.5-1.7c-.3-.3-1-.6-1.3-.6-.3 0-.7.7-.7 1.2v4c0 3.4 0 3.4 3.5 3h.3zm-514 6V88h-58v.3h58zm377.8 2c1.7.3 3-1.4 3-2.8.2-1.4-1.3-3-2.8-3-1.5 0-3 1.5-3 3 0 1.6 1.3 2.8 3 3zM49 61.3v2.3h10v-2.3H49zm0-4.7h10v-2H49v2zm886 .5v7.3l5.3-7.3H935zm-97 31.7v-3-5c0-.7-.6-1-1.2-1-.3 0-.8.4-.8.7v8.3h2zM21.8 61v-3h-6.4v3h6.4zm-6.4 10.8v2.7h6.4v-2.7h-6.4zm6.4 7h-6.4v2c0 .3.4.7.6.7h5.8V79zm804 10.7V81c0-.5-.4-1-.8-1.6-.5.6-1 1-1 1.4v8.7h1.8zM166.2 86v-1.7h-9V86h9zm-20.6-1.7h-9V86h9v-1.7zM832.3 89v-8c0-.2 0-.6-.3-.8l-1.3-.5c0 .4-.3.7-.3 1V89h2zM940 59.2h-.2l-5 6.3h4.6c.2 0 .6-.5.6-.7v-5.6zM15.5 67.6h6.4V65h-6.4v2.6zm140 16.7H147V86h8.5v-1.7zm343-16.2l-9.5-2c0 2 .6 3 2.2 3 2.5.3 5 0 7.3-1zm446.2 12.4c-3.5-.3-7-.3-10.4-.3h-11c1 1 19.3 1.2 21.4.4zM142.3 76h-6v2h6v-2zM819 79.7h-.3c-.2.5-.5 1-.5 1.4v8c0 .3.5.6.8 1 .2-.4.6-.6.6-1v-8c0-.5-.3-1-.5-1.4zm-691 6.4H122v2.2h5.7v-2.2zm6.8-10.3h-5.6v2h5.6v-2zm-7 0h-5.6v2h5.7v-2zm38.5 13h-9v1.4h9V89zm-9 6h9v-1.3h-9V95zm-20.7-4.6h9V89h-9v1.4zm0 4.5h9v-1.4h-9V95zM128 83v-2H122v2h5.7zm0 8.3H122v2h5.7v-2zm19-1h8.5V89H147v1.4zm8.5 3H147V95h8.5v-1.4zm-13.2-22.4H136v2h6.3v-2zm730 18.3c0-2 0-3.6-.2-5.3 0-.3-.3-.6-.6-1-.4.4-1 .7-1 1-.2 1.7-.2 3.3-.2 5 .7 0 1.3.2 2 .3zm-763 7c0-1.2-.2-2.2-.5-3-.2-.4-1-1-1.4-1-.4 0-1 .6-1.3 1 0 1 0 2-.3 3h3.7zM106 80.4h3.5c0-1-.2-1.8-.4-2.7-.3-.7-.8-1.3-1.6-1-.5.2-1 .7-1.2 1.2-.3.7-.3 1.6-.4 2.5zm3.6 10.4c-.2-1.2-.3-2-.7-3 0-.4-.8-1-1-1-.6.2-1.3.6-1.4 1l-.6 3h3.7zm0-5.4l-.7-3c0-.3-.7-.8-1-.7-.5 0-1.2.3-1.3.6-.4 1-.5 2-.7 3h3.7zM128 71H122V73h5.7V71zm6.8 0h-5.6V73h5.6V71zM105 96c0-1 0-1.8-.2-2.4-.2-.6-.8-1.2-1.4-1.4-.8-.3-1.2.5-1.4 1.2-.2.8-.2 1.6-.3 2.5h3.4zm.2-10.4c-.3-1-.3-2.2-.8-3-.5-1.2-1.7-1-2.2 0l-.6 3h3.6zm0-5c-.2-1.2-.4-2.2-.7-3 0-.4-.8-.8-1.2-.8-.4 0-1 .5-1 .8-.4 1-.5 2-.7 3h3.6zm0 10.3c-.2-1-.2-2-.5-2.6-.2-.6-.8-1.2-1.3-1.2s-1.2.6-1.3 1l-.3 2.7h3.4zm752.4-2.3c2 .2 2 .2 2-1.6v-1.7c0-1.7-.3-2-2-1.4v4.7zM136 62.5h6.2V61h-6v1.5zm.2 3.5v1.6h6V66h-6zM93.6 80.6H97l-.8-3.2c-.2-.7-.8-.8-1.5-.4-1.6 1-1 2.2-1 3.6zM97 91l-.8-3c-.2-1-.8-1-1.6-.7-1.5 1-1 2.3-1 3.6H97zm-.2 5c0-1 0-2-.4-2.8-.2-.5-.8-1-1.3-1-.3 0-1 .6-1 1-.4.8-.4 1.8-.5 2.7h3.3zm0-10.4c0-1-.3-2-.6-3-.2-.8-.8-1-1.5-.6-1 .7-1.4 1.6-1 3.6H97zM89.2 96h3.5c0-1-.2-2-.4-3 0-.2-.4-.8-.7-.8-.5 0-1.2.3-1.3.6-.5 1-.6 2-1 3zm9.2.2h2c.4 0 .8-.5.8-.7 0-.8-.2-1.7-.6-2.5-.2-.3-1-.5-1.5-.5-.4 0-.8.6-.8 1v2.7zm14.6 0v-2.8c0-.4-.5-1-.8-1-.4 0-1.2 0-1.3.4-.6 1-1 2-.7 3.4h2.8zM92.5 85.6c0-1 0-2-.4-2.8-.2-1-1.2-1.4-2-.4-.4.8-.4 2-.7 3.2h3.2zm0 5.3c0-1.2 0-2-.4-3-.2-1-1-1.2-2-.4-1 1-.3 2-.5 3.3h3zm0-10.5c0-1 0-1.8-.4-2.7-.2-1.2-1-1.3-2-.4-1 1-.3 2-.5 3.2h3zm29.7-13h5.7V66H122v1.6zM135 66H129v1.6h5.7V66zM122 62.6h5.6V61h-5.6v1.6zm7-1.6v1.5h5.6V61h-5.6zM101 91c-.2-1.2-.2-2.2-.6-3-.2-.5-1-.7-1.5-1-.3 0-.8.5-.8.7V91h2.7zm0-5.4c-.2-1-.3-2.2-.7-3 0-.5-1-.6-1.5-.7-.2 0-.6.6-.6 1v2.6h2.8zm-2.8-5h3l-1-3.3c-.2-.3-1-.4-1.6-.4 0 0-.4.5-.4 1v2.5zm14.6 5v-2.4c0-.6.2-1.3-.8-1.4-.8 0-1.4.3-1.6 1l-.3 2.8h2.8zm0 5.3v-2.5c0-.6.2-1.3-.7-1.4-.7 0-1.4.3-1.6 1l-.3 3h2.8zM110 80.4h2.8V78c0-.4.2-1-.6-1.2-1-.2-1.5 0-1.7 1-.3.8-.3 1.7-.4 2.7zm531.6-4.2c-.2-.7-.8-.8-1.6-.5l-2.4.7-3.3.5c-.8.2-1 .6-1 1.5l8.3-2.2zm221.2-.2h-.4c-.2.6-.5 1.2-.5 1.8-.2 1.2 0 2.4-.2 3.6 0 1 .5 1.3 1.5 1V77c0-.3-.3-.6-.5-1zm-619.3 8h.3l.2-2.7h-.2l-.5 1.4c-1-.7-2.8-.5-4 .4.5 1 2.2 1.8 3.2 1.6.3 0 .6-.5.8-.8l.2.3zM105.8 62.3h-2V66h2V62zm8.8-15.4v3.7h2v-3.7h-2zm-9 14v-3.7H104v4h2zm11-5.2V52h-2v3.6h2zm0 5.3V57h-2V61h2zM104 52v3.6h1.8V52h-2zm1.7-1.5V47c-2-.4-2-.4-2 1.5v2h2zM124 31.2h-2.2v3.2h2.2v-3.2zm0 8.6v-3.3h-2.2v3.3h2.2zm-20 27.7V71h1.8v-3.5h-2zm12.6-22.2v-3.5h-2v3.5h2zm-10.8 0v-3.5h-2v3.5h2zm3.6 20.6V62h-1.8V66h1.8zm3.3-5V57H111V61h1.7zm-3.3 0V57h-1.8V61h1.8zm1.5-10.5h1.7v-3.7H111v3.7zm0 5h1.7V52H111v3.6zm-1.7 0V52h-1.7v3.6h1.7zm11-5V47h-2v3.8h2zm-11 0V47h-1.7v3.8h1.8zm1.6 11.6v4h1.7v-4H111zm3.5-27.6h2v-3.2h-2v3.2zm2 2h-2v3.3h2v-3.2zM106 40v-3.3h-2v3.2h2zm0-8.7c-.8.4-1.8-.4-2 .8-.2.8 0 1.8 0 2.6h2V31zm7 10.8h-2v3.5h2v-3.5zm-5.2 0v3.4h1.8v-3.4h-1.8zm12.6 0h-1.8v3.5h1.8v-3.5zm-7.4 25.7h-2V71h2v-3.5zm-3.4 3.5v-3.5h-1.8V71h1.8zm-1.8-39.8v3.3h1.8v-3.3h-1.8zm3.3 0v3.3h1.7v-3.3H111zm7.4 0v3.3h1.8v-3.3h-1.8zm-9 8.6v-3.3h-1.8v3.3h1.8zm3.4-3.3h-2v3.2h2v-3.2zm7.4 3.3v-3.3h-1.8v3.3h1.8zm745.3 49h2.8c-.3-1.4-1.4-2.4-2.8-2.3V89zm-1 0c.3-1.7.2-2-.5-2.2-1 0-1.8 1-2 2l2.6.3zm290-11.4s-.3 0-.5-.2l-2.2 5.3.2.2c.2 0 .6-.2.7-.4.6-1.6 1.7-3 1.8-5zm1 5.8h.5l2.2-4s-.2-.4-.4-.4-.6 0-.7.3l-1.6 4.2zm3.4.6c1 .2 2-1.4 2-3.7-1 1-1.5 2.5-2 3.8zm-915.3 2.5c-1.4 1.7-1.2 3.3-.4 5 .6-1.7 0-3.2.4-5zm9 1.6c0-.2.2-.3.3-.4l-5.4-5-.3.3 5.4 5zm-22-1.5l-2.2.8v.5l2 .8v-2zM664.3 70c0-.2 0-.2-.2-.2v3c0 .3.4.5.6.7 0-.3.3-.6.3-1 0-.8-.4-1.7-.6-2.6zM1190 90.2h1.8c.2 0 .4-1 .2-1-.4-.4-1-.6-1.5-1 0 .8-.2 1.3-.4 2zM913.3 85l1.7 1.3c0 .2.4.2.7.2 0 0 .3-.4.2-.5-.3-.5-.6-1-1-1.2-.5-.2-1 0-1.8 0zM67.7 78v-1.8h-1.4v1.8h1.4zm4.6-2v2h1.3v-2h-1.3zm0 12.7c0 1.8 0 1.8 1.3 1.5v-1.7h-1-.3zm-6-.2c-.2 1.8 0 2 1.4 1.8v-1.8h-1.3zM1170 83.5c-1.2-.4-1.7.3-1.6 2.2 1.4 0 1-1.5 1.6-2.2zm-944 5c-1 .3-1.7.7-2.3 1l1.3.7c.2 0 .7 0 .8-.3.2-.4 0-1 .2-1.6zM67.7 84.7c-.6.2-1 .2-1.4.5v1c.4.2 1 .2 1.4.3v-1.8zm6 0c-.6.2-1 .2-1.4.5v1c.4.2 1 .2 1.3.3v-1.8zm1091 0s.3 0 .4.2c1-.4.7-1.5 1-2.2l-.6-.7-.7 2.7zm18.7 4c1 0 1.6-1 1.4-2h-1l-.4 2zM67.6 74V73h-1.3V74h1.3zm4.7 0h1.3V73h-1.3V74zm-4.6-5.3h-1.5V70h1.5v-1.3zm6 0H72V70h1.4v-1.3zm0 13.6v-1.5h-1.4v1.5h1.4zm-6-1.3c-1.5-.2-1.6 0-1.3 1.3h1.3V81zm166.7 14.6v-.2H229v.2h5.4zm946.7-9.8c-.7.3-1.3 1.6-1 2 0 0 0 .2.2.2s.4-.2.4-.3l.5-2zm-9.2.4c1.4 0 .8-1.2 1.2-2-1 .3-1 1.3-1.2 2zm26 5.5c1 .5 1 .5 1.4-.8-1-.6-1.2-.2-1.4.7zm-971-8.3l2.8-1c-2-.2-2.4 0-2.7 1zm960 6h.2c.2 0 .6 0 .7-.3.2-.3 0-.8 0-1.3h-.3l-.6 1.6z"/><path d="M162 81.5h-14V48.3h14v33.2zm-4.7-27.3v3.3c1.2.4 1-.5 1-1 0-1 .7-2-1-2.3zm1 8v-2.8c0-.2-.4-.4-.5-.6l-.6.6V62h1zm-1-9.4l.2.4c.3-.3.8-.4.8-.7v-2.3c0-.2-.4-.3-.6-.5 0 .2-.4.4-.5.6v2.5zm-1.4 15.5c-1 .6-1 3 0 3.4v-3.4zm0-10.7v-3.4c-1 .5-1 3 0 3.4zm-6.6 14.2c.7-.8.7-2.8 0-3.5v3.5zm6.5-13.3c-1 1-.6 2-.7 3l.4.7h.2v-3.7zm0 8.4v-3.5c-1 .8-1 3 0 3.4zm0-14v-3.4c-1 .8-1 3 0 3.4zm-6.6 9.3c.8-1 .7-3 0-3.5v3.5zm10.3-9c.7-1 .7-2.8 0-3.7v3.6zm-10.3 0c.8-1 .7-3 0-3.6v3.5zm0 4.4c.8-1 .7-3 0-3.5v3.5zm0 5.8V67c.7-1 .7-2.6 0-3.5zm0 12.5c.8-1 .7-2.6 0-3v3zm0 4.7c.8-.8.7-2.4 0-3v3zm2-9v-3.3 3.3zm2.6-17.4h-.3v3.2h.3v-3.2zm-2.7-1.3h.3v-3.3h-.3V53zm2.4 18.7h.2v-3.3h-.3v3.3zm0-4.8h.2v-3.4h-.3V67zm.3-17.3h-.2V53h.2v-3.3zM151.3 62h.2V59h-.2V62zm.3 1.6h-.3V67h.3v-3.4zm-.3-6h.2v-3.3h-.2v3.2zm2.7 1.2h-.2V62h.2V59zM710.6 60.4L710 59c.4-.2.8-.5 1.2-.4 5 .7 9.5 2.4 14 4.5.3.3.5.7.5 1l-.3 6.2c0 .6-.5 1.4.6 1.7.6-2 1-3.8 1.7-5.6.3-.8 1-1.4 1.7-2l1 .3c0 .4-.2.7-.4 1l-1 1-1.5 5c-.3 1 .5 1 1 1.2l7.2 3.8c1.2.6 1.7 1.5 1.2 2.8-.4.6-.4 1.3-.5 1.8-1-.4-2.2-1-3.3-1-1-.2-2.3 0-3.6 0-1.4-1.7-3-3.5-5.3-4.6l-.3.2.7 1c1.4 1.2 3 2.4 4.5 3.8-2.2 1.2-3.5 2.8-4.2 5-2.7-1-5.4-1.7-8-2.5.4-1 .8-2 1-3 1.5-6-3-11.6-8.3-12-1.4 0-3 .3-4.4.5h-1c0-.4.2-.8.4-1 .7-1 1.3-2 2.8-1.5l.5-.5 2.6-5.4zm8 2.4l-2 6.4c0 .4.2 1 .4 1.3.8 1.6 1.8 3 2.3 4.6.4 1 .7 1.7 1.8 2 .5 0 .8 0 1 .2 2-4 2.2-8 2.3-12 0-.4-.4-.8-.7-1-1.6-.4-3.2-1-5-1.4zm-3.2 6l1.6-5.5c.3-.7 0-1-.6-1.2-1.2-.2-2.4-.6-3.6-1-.3 0-1 0-1 .3-1 1.8-1.8 3.6-2.7 5.5l6.4 2zm17.6 8v2s.6.3.7.2c.6-.4 0-2-.7-2.2zm-1.6 2h.4c.6-1 .5-2-.5-2.6v2.5zM383.8 74.6h18.8c.2 0 .6 0 .7.3l8.5 8.2h-18.2c-1 0-2-.2-2.8-1l-6-6-1-1.6zM866.4 59.5l-15.5.8c.7-3.4 0-6.7.4-10.2 1.4 0 3-.5 4.5-.5h9.8c.7 0 1.4 0 1 1-.8 2.3-.3 4.6-.4 7v2zm-1.7-4.3c0-1.5-.3-2-1.4-2-1 0-1.4.6-1.4 2.3-.2 1 .4 1.6 1.3 1.6 1 0 1.4-.3 1.4-1.8zm-9.6 0c0-1 .4-2-1-2-.8 0-1.5 1-1.5 2.3 0 1 .2 1.7 1.3 1.6 1.5 0 1.3-1 1.3-2zM862.2 37.5l-7-.7c-.5-2.6.3-5 .7-7.3l.8-7 1-8v-2.8-7.2c0-.5-.4-1-.5-1.6 0-.5-.2-1 0-1.4.3-.6.8-1 1.5-1.6.2 1 .6 2 .6 3v6.8c.3 3.7.8 7.3 1.2 11 .4 3.4 1 7 1.2 10.5l.4 6.2zM853.8 47.5l-.6-7c0-1 .3-1.6 1.3-1.7h7c.7 0 1.5 0 2.2.3.3.2.8.7.7 1 0 2.2-.2 4.5-.5 6.7 0 .3-.6.7-.8.7h-9.4zm8-6c-.7 1.5-.3 3-.4 4.8.8-.4 1-1.7.4-4.8zm-7 0c-.7 1.5-.3 3-.4 4.8.8-.3 1-2.6.4-4.8zM389.7 83.4c-4.8-4-9-8.8-13.6-13l-1 1-12.5 12c-.5.5-1 .7-1.7 1l-.3-.4 15.3-14.7L390 83l-.3.4zM106 28.4v-1.7H125v1.7H106zM134 53V49h6V53h-6zM274.6 66c.5 5.7.2 11.5.8 17-.2.2-.3.2-.5.2l-.4-3-1-5.7c0-.2-.5-.3-.7-.5l-.3.3-.7-3.7c.3 0 .7-.2.8-.3.5 1 .8 2 1.2 3.2.2 0 .4 0 .5-.2L274 69c-.2-1 0-2 0-3h.6zM134 47.6c.8-.8 1.4-1.6 2.2-2.2.3-.2 1-.2 1 0 1 .6 1.8 1.3 2.8 2.2h-6zM789 71.6h6.3c.2 0 .7.4.7.6v7.3H791c-2 0-2 0-2-2v-6zm6.6 7.5v-6.6H794v2.8h-3.7v-2.8h-1v6.2c0 .2.5.4.8.7.2 0 .3-.2.4-.3v-2.6h3.8V79h1.4zM783.8 71.8v7.8h-7v-7.8h7zm-1.5 4.5v2.5c0 .2.4.4.6.5 0 0 .4-.3.4-.5v-6.4c-2.2.3-.6 2-1.4 2.8h-3.5v-2.7H777v7c.7 0 1 0 1.6-.2v-3h3.7zM783.8 85.3V93H777v-7.7h6.8zm-1.4 7.5c.8 0 1.2 0 1.2-.8v-5.7c0-.3-.4-.8-.6-.8h-5.8v7.2c1.6.2 1.7 0 1.5-1.4V86h2.7c.8 0 1 .2 1 1v5.8zM789 93v-7.7h7V93h-7zm.4-7.6v6.2c0 .5-.2 1.3.6 1 .2 0 .5-.6.5-1V86h3.7v6.5h1.5v-7h-6.3zM759.8 93.3h-6.2v-6.6h6.2v6.6zM752.6 86.7v6.6h-2.3v-6.6h2.3zM761 93.2v-6.5h2v6.5h-2zM786.8 53h1v6.2h-1v-6zM785.7 59.2h-1v-6l1-.2v6.2z"/><path d="M705.4 78c0-2 1.3-3.2 3.2-3.2 1.7 0 3.2 1.5 3.2 3.2 0 1.8-1.6 3.3-3.3 3.3-1.8 0-3-1.5-3-3.3z"/></g></svg>